<svg width="22" height="22" viewBox="0 0 22 22" fill="none" xmlns="http://www.w3.org/2000/svg">
<path d="M8.9375 2.75C8.75516 2.75 8.58029 2.82243 8.45136 2.95136C8.32243 3.0803 8.25 3.25516 8.25 3.4375V16.6031L6.72375 14.6987C6.66843 14.6251 6.59889 14.5634 6.51925 14.5171C6.43961 14.4709 6.35149 14.4411 6.26012 14.4296C6.16875 14.4181 6.076 14.425 5.98737 14.45C5.89874 14.475 5.81604 14.5176 5.74418 14.5752C5.67231 14.6328 5.61275 14.7042 5.56902 14.7852C5.52529 14.8663 5.49829 14.9553 5.48962 15.047C5.48096 15.1387 5.4908 15.2311 5.51856 15.319C5.54632 15.4068 5.59145 15.4881 5.65125 15.5581L8.40125 18.9956C8.46595 19.0754 8.54771 19.1396 8.64051 19.1837C8.7333 19.2277 8.83479 19.2503 8.9375 19.25C9.11983 19.25 9.2947 19.1776 9.42363 19.0486C9.55256 18.9197 9.625 18.7448 9.625 18.5625V3.4375C9.625 3.25516 9.55256 3.0803 9.42363 2.95136C9.2947 2.82243 9.11983 2.75 8.9375 2.75ZM16.3487 6.44875L13.5987 3.01125C13.5099 2.90045 13.3888 2.81991 13.2523 2.78069C13.1158 2.74147 12.9705 2.74549 12.8363 2.79222C12.7022 2.83894 12.5858 2.92606 12.5032 3.04161C12.4206 3.15716 12.3758 3.29546 12.375 3.4375V18.5625C12.375 18.7448 12.4474 18.9197 12.5764 19.0486C12.7053 19.1776 12.8802 19.25 13.0625 19.25C13.2448 19.25 13.4197 19.1776 13.5486 19.0486C13.6776 18.9197 13.75 18.7448 13.75 18.5625V5.39687L15.2762 7.30125C15.3922 7.43709 15.5565 7.52245 15.7344 7.53926C15.9122 7.55607 16.0896 7.50301 16.229 7.39132C16.3684 7.27963 16.4588 7.11807 16.4812 6.94086C16.5035 6.76364 16.456 6.58469 16.3487 6.44187V6.44875Z" fill="white"/>
</svg>
