<svg width="48" height="49" viewBox="0 0 48 49" fill="none" xmlns="http://www.w3.org/2000/svg">
<path d="M39.0019 19.9971C39.0019 24.2996 37.605 28.2741 35.2517 31.4986L47.121 43.375C48.293 44.5467 48.293 46.4495 47.121 47.6212C45.9491 48.7929 44.0459 48.7929 42.874 47.6212L31.0046 35.7448C27.7795 38.107 23.8043 39.4943 19.501 39.4943C8.72855 39.4943 0 30.7674 0 19.9971C0 9.22685 8.72855 0.5 19.501 0.5C30.2734 0.5 39.0019 9.22685 39.0019 19.9971ZM27.0013 16.9976C27.0013 12.8544 23.6449 9.49868 19.501 9.49868C15.357 9.49868 12.0006 12.8544 12.0006 16.9976C12.0006 21.5719 16.3602 27.4586 18.4321 29.9894C18.9947 30.6737 20.0072 30.6737 20.5604 29.9894C22.6324 27.4586 26.9919 21.5719 26.9919 16.9976H27.0013ZM16.5008 16.9976C16.5008 16.2021 16.8169 15.4391 17.3795 14.8766C17.9422 14.314 18.7053 13.998 19.501 13.998C20.2966 13.998 21.0597 14.314 21.6224 14.8766C22.185 15.4391 22.5011 16.2021 22.5011 16.9976C22.5011 17.7931 22.185 18.5561 21.6224 19.1186C21.0597 19.6811 20.2966 19.9971 19.501 19.9971C18.7053 19.9971 17.9422 19.6811 17.3795 19.1186C16.8169 18.5561 16.5008 17.7931 16.5008 16.9976Z" fill="white"/>
</svg>
